<svg xmlns="http://www.w3.org/2000/svg" xml:space="preserve" viewBox="0 0 2500 2124.1"><path d="M2342.374 491.895h-225.593v1251.87h225.593v-735.781h157.569V784.472h-157.569zM1619.781 2124.151h-225.246V476.971c0-263.077 215.875-476.87 480.687-476.87v223.511c-140.909 0-255.441 113.491-255.441 253.359z" class="st0"/><path d="M1280.697 784.472h722.246l-63.86 223.512h-658.386c-50.325 198.869-232.188 346.372-448.064 346.372-254.747 0-461.946-205.463-461.946-458.128s207.199-458.129 461.946-458.129c215.876-.347 397.739 147.504 448.064 346.373M573.374 896.228c0 141.603 116.267 257.177 259.259 257.177s259.26-115.227 259.26-257.177S975.624 639.05 832.632 639.05 573.374 754.278 573.374 896.228" class="st0"/><path d="M624.046 1728.842c-343.944 0-624.027-277.654-624.027-618.82V491.894h225.247v618.126c0 217.958 178.74 395.31 398.433 395.31v223.51z" class="st0"/></svg>