<svg xmlns="http://www.w3.org/2000/svg" data-name="logosandtypes com" viewBox="0 0 150 150"><path d="M0 0h150v150H0z" style="fill:none"/><path d="M135.79 18.35H29.11c-8.27 0-13.57 8.75-9.7 16.02l10.67 20.1H10.73C7 54.4 3.66 57.61 3.62 61.34c-.04 1.22.25 2.43.82 3.5l34.32 64.63c2.42 4.94 10.15 4.95 12.57 0l9.32-17.46 11.7 22.03c4.12 7.75 15.27 7.76 19.4.02l53.47-100.11c3.78-7.08-1.38-15.62-9.44-15.62ZM87.87 61.12 64.81 104.3c-1.62 3.28-6.75 3.29-8.37 0L33.61 61.31c-1.21-2.17-.34-5.13 1.84-6.3.71-.4 1.51-.61 2.33-.62H83.8c3.34-.11 5.75 3.82 4.07 6.73" style="fill:#f71963"/></svg>